<svg width="40" height="40" viewBox="0 0 40 40" fill="none" xmlns="http://www.w3.org/2000/svg">
<path d="M33.4073 17.722H32.3333V17.6667H20.3333V23H27.8687C26.7693 26.1047 23.8153 28.3333 20.3333 28.3333C15.9153 28.3333 12.3333 24.7513 12.3333 20.3333C12.3333 15.9153 15.9153 12.3333 20.3333 12.3333C22.3727 12.3333 24.228 13.1027 25.6407 14.3593L29.412 10.588C27.0307 8.36867 23.8453 7 20.3333 7C12.97 7 7 12.97 7 20.3333C7 27.6967 12.97 33.6667 20.3333 33.6667C27.6967 33.6667 33.6667 27.6967 33.6667 20.3333C33.6667 19.4393 33.5747 18.5667 33.4073 17.722Z" fill="#FFC107"/>
<path d="M8.53729 14.1273L12.918 17.34C14.1033 14.4053 16.974 12.3333 20.3333 12.3333C22.3726 12.3333 24.228 13.1027 25.6406 14.3593L29.412 10.588C27.0306 8.36867 23.8453 7 20.3333 7C15.212 7 10.7706 9.89133 8.53729 14.1273Z" fill="#FF3D00"/>
<path d="M20.3333 33.6667C23.7773 33.6667 26.9067 32.3487 29.2727 30.2053L25.146 26.7133C23.7623 27.7656 22.0716 28.3347 20.3333 28.3333C16.8653 28.3333 13.9207 26.122 12.8113 23.036L8.46332 26.386C10.67 30.704 15.1513 33.6667 20.3333 33.6667Z" fill="#4CAF50"/>
<path d="M33.4073 17.722H32.3333V17.6667H20.3333V23H27.8686C27.3428 24.4776 26.3956 25.7688 25.144 26.714L25.146 26.7127L29.2726 30.2047C28.9806 30.47 33.6666 27 33.6666 20.3334C33.6666 19.4394 33.5746 18.5667 33.4073 17.722Z" fill="#1976D2"/>
</svg>
